HIERARCHY
ROOT Hips
{
	OFFSET 0.000000 121.760803 0.000000
	CHANNELS 6 Xposition Yposition Zposition Xrotation Yrotation Zrotation 
	JOINT Spine
	{
		OFFSET 0.072000 7.257294 -0.789700
		CHANNELS 3 Xrotation Yrotation Zrotation
		JOINT Spine1
		{
			OFFSET 0.000000 12.508769 -0.658067
			CHANNELS 3 Xrotation Yrotation Zrotation
			JOINT Spine1_split
			{
				OFFSET 0.000000 12.508769 -0.658067
				CHANNELS 3 Xrotation Yrotation Zrotation
				JOINT Spine2
				{
					OFFSET 0.000000 12.508769 -0.658067
					CHANNELS 3 Xrotation Yrotation Zrotation
					JOINT Neck
					{
						OFFSET 0.000000 14.033295 7.520400
						CHANNELS 3 Xrotation Yrotation Zrotation
						JOINT Head
						{
							OFFSET 0.000000 8.198502 5.703100
							CHANNELS 3 Xrotation Yrotation Zrotation
							JOINT HeadTop_End
							{
								OFFSET 0.000000 17.760803 13.332701
								CHANNELS 3 Xrotation Yrotation Zrotation
								End Site
								{
									OFFSET 0.000000 0.000000 0.000000
								}
							}
						}
					}
					JOINT LeftShoulder
					{
						OFFSET 6.292450 5.785301 -0.669000
						CHANNELS 3 Xrotation Yrotation Zrotation
						JOINT LeftShoulder_split
						{
							OFFSET 6.292450 5.785301 -0.669000
							CHANNELS 3 Xrotation Yrotation Zrotation
							JOINT LeftArm
							{
								OFFSET 13.907140 -6.093903 1.965100
								CHANNELS 3 Xrotation Yrotation Zrotation
								JOINT LeftForeArm
								{
									OFFSET 34.140198 0.000000 0.000000
									CHANNELS 3 Xrotation Yrotation Zrotation
									JOINT LeftHand
									{
										OFFSET 40.960209 0.000000 0.000000
										CHANNELS 3 Xrotation Yrotation Zrotation
										JOINT LeftHandThumb1
										{
											OFFSET 10.006996 -7.170425 9.573125
											CHANNELS 3 Xrotation Yrotation Zrotation
											JOINT LeftHandThumb2
											{
												OFFSET 1.835007 -1.059448 1.059443
												CHANNELS 3 Xrotation Yrotation Zrotation
												JOINT LeftHandThumb3
												{
													OFFSET 2.112267 -1.219513 1.219518
													CHANNELS 3 Xrotation Yrotation Zrotation
													JOINT LeftHandThumb4
													{
														OFFSET 4.843811 -2.796570 2.796576
														CHANNELS 3 Xrotation Yrotation Zrotation
														End Site
														{
															OFFSET 0.000000 0.000000 0.000000
														}
													}
												}
											}
										}
										JOINT LeftHandIndex1
										{
											OFFSET 18.389847 -0.922348 4.596882
											CHANNELS 3 Xrotation Yrotation Zrotation
											JOINT LeftHandIndex2
											{
												OFFSET 4.711273 0.000000 0.000000
												CHANNELS 3 Xrotation Yrotation Zrotation
												JOINT LeftHandIndex3
												{
													OFFSET 2.886131 0.000000 0.000000
													CHANNELS 3 Xrotation Yrotation Zrotation
													JOINT LeftHandIndex4
													{
														OFFSET 6.145912 0.000000 0.000000
														CHANNELS 3 Xrotation Yrotation Zrotation
														End Site
														{
															OFFSET 0.000000 0.000000 0.000000
														}
													}
												}
											}
										}
										JOINT LeftHandMiddle1
										{
											OFFSET 18.013008 0.000000 0.000000
											CHANNELS 3 Xrotation Yrotation Zrotation
											JOINT LeftHandMiddle2
											{
												OFFSET 4.946693 0.000000 0.000000
												CHANNELS 3 Xrotation Yrotation Zrotation
												JOINT LeftHandMiddle3
												{
													OFFSET 3.342232 0.000000 0.000000
													CHANNELS 3 Xrotation Yrotation Zrotation
													JOINT LeftHandMiddle4
													{
														OFFSET 4.461754 0.000000 0.000000
														CHANNELS 3 Xrotation Yrotation Zrotation
														End Site
														{
															OFFSET 0.000000 0.000000 0.000000
														}
													}
												}
											}
										}
										JOINT LeftHandRing1
										{
											OFFSET 15.849892 -0.102921 -4.126150
											CHANNELS 3 Xrotation Yrotation Zrotation
											JOINT LeftHandRing2
											{
												OFFSET 3.527054 0.000000 0.000000
												CHANNELS 3 Xrotation Yrotation Zrotation
												JOINT LeftHandRing3
												{
													OFFSET 2.961098 0.000000 0.000000
													CHANNELS 3 Xrotation Yrotation Zrotation
													JOINT LeftHandRing4
													{
														OFFSET 4.927200 0.000000 0.000000
														CHANNELS 3 Xrotation Yrotation Zrotation
														End Site
														{
															OFFSET 0.000000 0.000000 0.000000
														}
													}
												}
											}
										}
										JOINT LeftHandPinky1
										{
											OFFSET 12.791824 -0.832031 -6.799156
											CHANNELS 3 Xrotation Yrotation Zrotation
											JOINT LeftHandPinky2
											{
												OFFSET 3.327133 0.000000 0.000000
												CHANNELS 3 Xrotation Yrotation Zrotation
												JOINT LeftHandPinky3
												{
													OFFSET 3.014900 0.000000 0.000000
													CHANNELS 3 Xrotation Yrotation Zrotation
													JOINT LeftHandPinky4
													{
														OFFSET 5.847786 0.000000 0.000000
														CHANNELS 3 Xrotation Yrotation Zrotation
														End Site
														{
															OFFSET 0.000000 0.000000 0.000000
														}
													}
												}
											}
										}
									}
								}
							}
						}
					}
					JOINT RightShoulder
					{
						OFFSET -6.292450 5.785301 -0.669000
						CHANNELS 3 Xrotation Yrotation Zrotation
						JOINT RightShoulder_split
						{
							OFFSET -6.292450 5.785301 -0.669000
							CHANNELS 3 Xrotation Yrotation Zrotation
							JOINT RightArm
							{
								OFFSET -13.907140 -6.093903 1.965100
								CHANNELS 3 Xrotation Yrotation Zrotation
								JOINT RightForeArm
								{
									OFFSET -34.140198 0.000000 0.000000
									CHANNELS 3 Xrotation Yrotation Zrotation
									JOINT RightHand
									{
										OFFSET -40.960209 0.000000 0.000000
										CHANNELS 3 Xrotation Yrotation Zrotation
										JOINT RightHandThumb1
										{
											OFFSET -10.007050 -7.170456 9.573117
											CHANNELS 3 Xrotation Yrotation Zrotation
											JOINT RightHandThumb2
											{
												OFFSET -1.835007 -1.059448 1.059443
												CHANNELS 3 Xrotation Yrotation Zrotation
												JOINT RightHandThumb3
												{
													OFFSET -2.112267 -1.219513 1.219518
													CHANNELS 3 Xrotation Yrotation Zrotation
													JOINT RightHandThumb4
													{
														OFFSET -4.843834 -2.796585 2.796590
														CHANNELS 3 Xrotation Yrotation Zrotation
														End Site
														{
															OFFSET 0.000000 0.000000 0.000000
														}
													}
												}
											}
										}
										JOINT RightHandIndex1
										{
											OFFSET -18.389870 -0.922424 4.596786
											CHANNELS 3 Xrotation Yrotation Zrotation
											JOINT RightHandIndex2
											{
												OFFSET -4.711273 0.000000 0.000000
												CHANNELS 3 Xrotation Yrotation Zrotation
												JOINT RightHandIndex3
												{
													OFFSET -2.886131 0.000000 0.000000
													CHANNELS 3 Xrotation Yrotation Zrotation
													JOINT RightHandIndex4
													{
														OFFSET -6.145920 0.000000 0.000000
														CHANNELS 3 Xrotation Yrotation Zrotation
														End Site
														{
															OFFSET 0.000000 0.000000 0.000000
														}
													}
												}
											}
										}
										JOINT RightHandMiddle1
										{
											OFFSET -18.013008 0.000000 0.000000
											CHANNELS 3 Xrotation Yrotation Zrotation
											JOINT RightHandMiddle2
											{
												OFFSET -4.946693 0.000000 0.000000
												CHANNELS 3 Xrotation Yrotation Zrotation
												JOINT RightHandMiddle3
												{
													OFFSET -3.342232 0.000000 0.000000
													CHANNELS 3 Xrotation Yrotation Zrotation
													JOINT RightHandMiddle4
													{
														OFFSET -4.461754 0.000000 0.000000
														CHANNELS 3 Xrotation Yrotation Zrotation
														End Site
														{
															OFFSET 0.000000 0.000000 0.000000
														}
													}
												}
											}
										}
										JOINT RightHandRing1
										{
											OFFSET -15.849876 -0.102936 -4.126237
											CHANNELS 3 Xrotation Yrotation Zrotation
											JOINT RightHandRing2
											{
												OFFSET -3.527054 0.000000 0.000000
												CHANNELS 3 Xrotation Yrotation Zrotation
												JOINT RightHandRing3
												{
													OFFSET -2.961098 0.000000 0.000000
													CHANNELS 3 Xrotation Yrotation Zrotation
													JOINT RightHandRing4
													{
														OFFSET -4.927200 0.000000 0.000000
														CHANNELS 3 Xrotation Yrotation Zrotation
														End Site
														{
															OFFSET 0.000000 0.000000 0.000000
														}
													}
												}
											}
										}
										JOINT RightHandPinky1
										{
											OFFSET -12.791786 -0.832077 -6.799222
											CHANNELS 3 Xrotation Yrotation Zrotation
											JOINT RightHandPinky2
											{
												OFFSET -3.327133 0.000000 0.000000
												CHANNELS 3 Xrotation Yrotation Zrotation
												JOINT RightHandPinky3
												{
													OFFSET -3.014900 0.000000 0.000000
													CHANNELS 3 Xrotation Yrotation Zrotation
													JOINT RightHandPinky4
													{
														OFFSET -5.847786 0.000000 0.000000
														CHANNELS 3 Xrotation Yrotation Zrotation
														End Site
														{
															OFFSET 0.000000 0.000000 0.000000
														}
													}
												}
											}
										}
									}
								}
							}
						}
					}
				}
			}
		}
	}
	JOINT LeftUpLeg
	{
		OFFSET 13.026900 -6.336304 -1.092800
		CHANNELS 3 Xrotation Yrotation Zrotation
		JOINT LeftLeg
		{
			OFFSET 0.524474 -46.096886 9.782700
			CHANNELS 3 Xrotation Yrotation Zrotation
			JOINT LeftFoot
			{
				OFFSET -0.524474 -53.427422 -12.948200
				CHANNELS 3 Xrotation Yrotation Zrotation
				JOINT LeftToeBase
				{
					OFFSET 0.192200 -14.009700 16.364100
					CHANNELS 3 Xrotation Yrotation Zrotation
					JOINT LeftToe_End
					{
						OFFSET -1.784700 -0.561700 9.474800
						CHANNELS 3 Xrotation Yrotation Zrotation
						End Site
						{
							OFFSET 0.000000 0.000000 0.000000
						}
					}
				}
			}
		}
	}
	JOINT RightUpLeg
	{
		OFFSET -12.883000 -6.336304 -1.092800
		CHANNELS 3 Xrotation Yrotation Zrotation
		JOINT RightLeg
		{
			OFFSET -0.524587 -46.096825 9.782800
			CHANNELS 3 Xrotation Yrotation Zrotation
			JOINT RightFoot
			{
				OFFSET 0.524587 -53.427383 -12.948300
				CHANNELS 3 Xrotation Yrotation Zrotation
				JOINT RightToeBase
				{
					OFFSET -0.192200 -14.009700 16.364100
					CHANNELS 3 Xrotation Yrotation Zrotation
					JOINT RightToe_End
					{
						OFFSET 1.784700 -0.561700 9.474800
						CHANNELS 3 Xrotation Yrotation Zrotation
						End Site
						{
							OFFSET 0.000000 0.000000 0.000000
						}
					}
				}
			}
		}
	}
}
MOTION
Frames: 4
Frame Time: 0.016667
-5.047893 102.547958 -2.456879 -3.096347 -6.895226 5.290256 13.732183 0.689568 -4.453267 2.722913 0.133859 -0.943517 0.000000 0.000000 0.000000 2.720028 0.135221 -0.952573 2.743899 0.369062 0.041968 21.918275 4.192716 -0.129340 -0.000000 -0.000000 -0.000000 0.619242 -1.200853 -10.994815 0.000000 0.000000 0.000000 17.248862 -24.148530 -54.371588 0.000014 -28.855384 0.000014 24.205878 -0.057595 -1.453795 -13.734204 9.516293 2.120162 12.920935 20.445748 20.805438 1.615737 -13.628054 26.911965 -0.000002 -0.000000 0.000000 0.624773 4.843188 -25.352347 0.379493 2.075999 -20.715383 1.406321 3.808969 -40.517492 -0.000002 0.000001 0.000001 0.442363 4.431075 -20.811037 0.385147 2.090958 -20.871742 1.613647 4.038440 -43.546650 0.000001 -0.000000 0.000000 0.553770 4.704300 -23.698195 0.384473 2.089149 -20.852953 1.498310 3.913808 -41.883526 -0.000001 0.000001 -0.000001 0.677167 4.972457 -26.586885 0.385165 2.090964 -20.871736 1.415448 3.819604 -40.654782 -0.000000 0.000001 -0.000002 0.265362 6.336858 17.304037 0.000000 0.000000 0.000000 14.561905 17.232542 47.386053 0.000008 42.148974 -0.000012 24.497974 9.178853 9.204416 -13.230993 -9.083829 -4.233067 14.743225 -13.848456 -17.282892 3.139531 -1.609828 -20.186476 0.000003 -0.000002 0.000003 0.733537 -4.698522 31.512369 0.755286 -2.544505 33.060151 0.755379 -2.544651 33.062145 -0.000000 0.000002 -0.000001 0.728939 -4.705640 31.511337 0.755266 -2.544484 33.059919 0.846407 -2.679163 35.059730 0.000000 0.000002 -0.000000 0.816092 -4.842847 33.512016 0.711537 -2.476065 32.061294 0.800308 -2.612312 34.060883 0.000002 -0.000001 -0.000000 0.908021 -4.976939 35.513323 0.755273 -2.544492 33.059932 0.755372 -2.544649 33.062145 0.000000 -0.000002 0.000001 -65.928620 5.128732 7.360976 54.468798 -0.328111 -4.929558 2.676771 0.091126 -0.946771 -1.242540 -0.000001 -0.000000 0.000001 -0.000000 0.000000 -21.495403 -6.819468 -6.934443 51.885313 7.813648 3.594180 -26.934501 3.273209 -8.701763 -5.454418 0.000001 0.000002 -0.000001 -0.000001 -0.000000 
-5.132807 102.487579 -2.737499 -2.986784 -6.805826 5.523818 13.853816 0.668392 -4.513971 2.787337 0.158804 -0.935779 0.000000 0.000000 0.000000 2.784216 0.161846 -0.946241 2.763234 0.364235 0.009163 21.835041 4.220364 -0.349115 -0.000002 -0.000000 0.000000 0.629834 -1.288736 -11.002615 0.000000 0.000000 0.000000 17.403966 -24.407266 -54.849192 0.000001 -28.505436 -0.000011 25.130400 -0.221150 -1.029079 -13.734132 9.516088 2.120195 12.920904 20.445901 20.805395 1.615764 -13.628002 26.911914 0.000001 -0.000000 -0.000003 0.626806 4.847511 -25.401784 0.414679 2.166692 -21.665864 1.439908 3.847843 -41.020668 -0.000001 0.000001 0.000001 0.439032 4.422245 -20.716739 0.416240 2.170642 -21.707565 1.638036 4.063884 -43.891994 0.000001 -0.000000 -0.000000 0.551165 4.698285 -23.632072 0.415321 2.168371 -21.683650 1.500114 3.915826 -41.909942 0.000001 -0.000000 -0.000000 0.675535 4.969155 -26.548966 0.416244 2.170647 -21.707564 1.436633 3.844081 -40.971689 -0.000001 0.000000 -0.000000 0.222707 6.699103 17.382116 0.000000 0.000000 0.000000 14.920427 17.286560 46.635985 0.000005 43.116027 -0.000003 24.299866 9.494712 9.224562 -13.085056 -9.143583 -3.844993 14.660629 -13.964680 -17.694051 3.136757 -1.610384 -20.186225 -0.000002 0.000001 0.000004 0.754220 -4.732101 32.001492 0.777128 -2.577732 33.548865 0.777197 -2.577813 33.550333 -0.000000 -0.000001 -0.000000 0.749953 -4.739711 32.000522 0.777111 -2.577698 33.548691 0.869361 -2.711547 35.548010 0.000001 -0.000000 -0.000000 0.838280 -4.876172 34.001341 0.732797 -2.509641 32.550014 0.822697 -2.645090 34.549139 0.000000 -0.000002 0.000000 0.931351 -5.009460 36.002808 0.777111 -2.577714 33.548694 0.777188 -2.577811 33.550340 -0.000001 0.000001 0.000000 -65.373673 4.840470 6.648546 50.217180 -0.453224 -4.639979 5.390209 0.129296 0.261339 -0.940476 -0.000000 0.000000 -0.000001 -0.000000 0.000000 -21.931797 -6.739165 -7.061129 52.119627 7.738535 3.560427 -26.866220 3.224394 -8.745893 -5.455708 0.000003 0.000001 0.000000 0.000000 -0.000000 
-5.211869 102.452751 -3.083155 -2.817339 -6.797626 5.685601 13.972211 0.648336 -4.528615 2.847388 0.187926 -0.917955 0.000000 0.000000 0.000000 2.844043 0.192473 -0.929923 2.777816 0.367201 -0.028368 21.720487 4.314692 -0.576000 0.000001 -0.000000 -0.000000 0.640730 -1.333960 -11.005097 0.000000 0.000000 0.000000 17.374232 -24.472993 -55.481637 0.000004 -28.210918 0.000014 25.772430 -0.259531 -0.556231 -13.734060 9.515829 2.120260 12.920884 20.446110 20.805258 1.615844 -13.627912 26.911859 0.000003 0.000001 -0.000001 0.627446 4.848872 -25.418669 0.447872 2.248440 -22.528180 1.468772 3.880706 -41.449010 -0.000001 0.000001 0.000000 0.435061 4.411621 -20.603349 0.446262 2.244517 -22.486753 1.640302 4.066221 -43.923830 0.000000 0.000001 0.000000 0.547656 4.690270 -23.544212 0.445571 2.242878 -22.469483 1.477519 3.890555 -41.578063 0.000001 -0.000002 -0.000000 0.672796 4.963659 -26.486671 0.446249 2.244527 -22.486730 1.437039 3.844553 -40.977887 0.000000 -0.000000 0.000000 0.180821 7.065460 17.444803 0.000000 0.000000 0.000000 15.301593 17.417508 45.815037 0.000009 44.069518 -0.000012 24.288074 9.779428 9.317264 -12.936533 -9.203464 -3.451734 14.577097 -14.082832 -18.110738 3.133930 -1.611107 -20.185963 -0.000001 0.000001 -0.000002 0.772987 -4.762064 32.439799 0.796947 -2.607344 33.987069 0.796968 -2.607365 33.987691 0.000001 0.000000 -0.000000 0.769056 -4.770144 32.438986 0.796937 -2.607322 33.986984 0.890186 -2.740415 35.985466 -0.000001 0.000000 0.000000 0.858435 -4.905910 34.439931 0.752099 -2.539619 32.988260 0.842992 -2.674284 34.986531 -0.000000 -0.000001 0.000000 0.952577 -5.038493 36.441491 0.796940 -2.607314 33.986994 0.796980 -2.607368 33.987704 -0.000001 -0.000001 0.000000 -64.688380 4.516599 6.007612 46.042428 -1.154053 -4.254996 8.568702 0.207518 1.618098 -0.917274 0.000000 0.000000 0.000000 -0.000000 0.000000 -22.451341 -6.700272 -7.105703 52.289982 7.753839 3.524329 -26.691756 3.178901 -8.845390 -5.451043 0.000002 -0.000000 -0.000001 -0.000000 -0.000000 
-5.292373 102.431068 -3.452406 -2.562503 -6.832471 5.775019 14.093127 0.646238 -4.512531 2.901650 0.218671 -0.897720 0.000000 0.000000 0.000000 2.898105 0.224245 -0.911136 2.785685 0.373450 -0.062493 21.560418 4.426315 -0.753392 -0.000000 0.000000 0.000000 0.651117 -1.376265 -11.000299 0.000000 0.000000 0.000000 17.231041 -24.456449 -56.127626 0.000013 -27.965513 0.000024 26.138091 -0.195741 -0.169284 -13.733972 9.515505 2.120342 12.920848 20.446345 20.805123 1.615914 -13.627796 26.911768 -0.000001 -0.000002 -0.000003 0.626480 4.846804 -25.397584 0.478077 2.319891 -23.286456 1.492259 3.907074 -41.794747 -0.000001 0.000000 0.000001 0.430237 4.398738 -20.466153 0.475174 2.313094 -23.214109 1.618471 4.043494 -43.615153 0.000001 -0.000000 0.000001 0.543123 4.679798 -23.429757 0.474911 2.312483 -23.207612 1.434040 3.841110 -40.933044 -0.000000 -0.000001 0.000000 0.668759 4.955531 -26.394955 0.475156 2.313096 -23.214085 1.414904 3.818978 -40.646524 -0.000000 0.000000 0.000001 0.141480 7.412042 17.493919 0.000000 0.000000 0.000000 15.609455 17.553250 45.040299 0.000025 44.952651 -0.000024 24.556094 10.030621 9.405981 -12.785921 -9.263290 -3.054563 14.492968 -14.202495 -18.531616 3.131090 -1.611850 -20.185680 0.000000 0.000002 0.000002 0.789422 -4.787879 32.818984 0.814287 -2.632837 34.366315 0.814261 -2.632814 34.365957 -0.000000 -0.000001 0.000001 0.785822 -4.796403 32.818335 0.814283 -2.632842 34.366329 0.908344 -2.765234 36.363773 -0.000001 0.000002 -0.000000 0.876133 -4.931590 34.819365 0.768998 -2.565429 33.367598 0.860750 -2.699447 35.364817 0.000001 0.000000 0.000000 0.971145 -5.063511 36.821061 0.814280 -2.632837 34.366343 0.814277 -2.632816 34.365940 -0.000000 -0.000000 -0.000000 -64.149342 4.093868 5.703905 42.906729 -1.122005 -3.853538 10.719356 0.206417 1.701630 -0.587582 0.000001 0.000000 0.000001 0.000000 0.000000 -23.049926 -6.708296 -7.068834 52.404278 7.828839 3.495081 -26.451706 3.139477 -8.986153 -5.444807 -0.000002 -0.000003 -0.000000 -0.000001 -0.000000 
